# Blender 4.3.2
# www.blender.org
mtllib Campfire.mtl
o Ash
v 0.682843 0.000000 -0.682843
v 0.682843 0.000000 0.682843
v -0.682843 0.000000 -0.682843
v -0.682843 0.000000 0.682843
v -0.000000 0.000000 0.965685
v 0.000000 0.000000 -0.965685
v 0.965685 0.000000 0.000000
v -0.965685 0.000000 -0.000000
v 0.000000 0.500000 0.000000
vn -0.1871 0.8723 -0.4517
vn 0.1871 0.8723 -0.4517
vn -0.4517 0.8723 -0.1871
vn -0.4517 0.8723 0.1871
vn -0.1871 0.8723 0.4517
vn 0.1871 0.8723 0.4517
vn 0.4517 0.8723 0.1871
vn 0.4517 0.8723 -0.1871
vn -0.0000 -1.0000 -0.0000
vt 0.009369 0.296774
vt 0.271362 0.009369
vt 0.569662 0.500000
vt 0.009369 0.703226
vt 0.641876 0.009369
vt 0.903869 0.296774
vt 0.903869 0.703226
vt 0.641876 0.990631
vt 0.271362 0.990631
s 0
usemtl Ash_MAT
f 6/1/1 3/2/1 9/3/1
f 1/4/2 6/1/2 9/3/2
f 3/2/3 8/5/3 9/3/3
f 8/5/4 4/6/4 9/3/4
f 5/7/5 9/3/5 4/6/5
f 5/7/6 2/8/6 9/3/6
f 7/9/7 9/3/7 2/8/7
f 7/9/8 1/4/8 9/3/8
f 5/7/9 4/6/9 8/5/9 3/2/9 6/1/9 1/4/9 7/9/9 2/8/9
o Log
v -0.200000 0.234315 1.648528
v -0.200000 1.648528 0.234315
v -0.200000 -0.048528 1.365685
v -0.200000 1.365685 -0.048528
v 0.200000 0.234315 1.648528
v 0.200000 1.648528 0.234315
v 0.200000 -0.048528 1.365685
v 0.200000 1.365685 -0.048528
vn -1.0000 -0.0000 -0.0000
vn -0.0000 -0.7071 -0.7071
vn 1.0000 -0.0000 -0.0000
vn -0.0000 0.7071 0.7071
vn -0.0000 -0.7071 0.7071
vn -0.0000 0.7071 -0.7071
vt 0.217958 0.838379
vt 0.217958 0.017958
vt 0.382042 0.017958
vt 0.382042 0.838379
vt 0.417958 0.838380
vt 0.417958 0.017958
vt 0.582042 0.017958
vt 0.582042 0.838380
vt 0.017958 0.838380
vt 0.017958 0.017958
vt 0.182042 0.017958
vt 0.182042 0.838380
vt 0.617958 0.838379
vt 0.617958 0.017958
vt 0.782042 0.017958
vt 0.782042 0.838379
vt 0.982042 0.217958
vt 0.982042 0.382042
vt 0.817958 0.382042
vt 0.817958 0.217958
vt 0.982042 0.017958
vt 0.982042 0.182042
vt 0.817958 0.182042
vt 0.817958 0.017958
s 0
usemtl Log_MAT
f 10/10/10 11/11/10 13/12/10 12/13/10
f 12/14/11 13/15/11 17/16/11 16/17/11
f 16/18/12 17/19/12 15/20/12 14/21/12
f 14/22/13 15/23/13 11/24/13 10/25/13
f 12/26/14 16/27/14 14/28/14 10/29/14
f 17/30/15 13/31/15 11/32/15 15/33/15
o Log.001
v -0.200000 0.234315 -1.648528
v -0.200000 1.648528 -0.234315
v -0.200000 -0.048528 -1.365685
v -0.200000 1.365685 0.048528
v 0.200000 0.234315 -1.648528
v 0.200000 1.648528 -0.234315
v 0.200000 -0.048528 -1.365685
v 0.200000 1.365685 0.048528
vn -1.0000 -0.0000 -0.0000
vn -0.0000 -0.7071 0.7071
vn 1.0000 -0.0000 -0.0000
vn -0.0000 0.7071 -0.7071
vn -0.0000 -0.7071 -0.7071
vn -0.0000 0.7071 0.7071
vt 0.217958 0.838379
vt 0.382042 0.838379
vt 0.382042 0.017958
vt 0.217958 0.017958
vt 0.417958 0.838380
vt 0.582042 0.838380
vt 0.582042 0.017958
vt 0.417958 0.017958
vt 0.017958 0.838380
vt 0.182042 0.838380
vt 0.182042 0.017958
vt 0.017958 0.017958
vt 0.617958 0.838379
vt 0.782042 0.838379
vt 0.782042 0.017958
vt 0.617958 0.017958
vt 0.982042 0.217958
vt 0.817958 0.217958
vt 0.817958 0.382042
vt 0.982042 0.382042
vt 0.982042 0.017958
vt 0.817958 0.017958
vt 0.817958 0.182042
vt 0.982042 0.182042
s 0
usemtl Log_MAT
f 18/34/16 20/35/16 21/36/16 19/37/16
f 20/38/17 24/39/17 25/40/17 21/41/17
f 24/42/18 22/43/18 23/44/18 25/45/18
f 22/46/19 18/47/19 19/48/19 23/49/19
f 20/50/20 18/51/20 22/52/20 24/53/20
f 25/54/21 23/55/21 19/56/21 21/57/21
o Log.002
v -1.648528 0.234315 -0.200000
v -0.234315 1.648528 -0.200000
v -1.365685 -0.048528 -0.200000
v 0.048528 1.365685 -0.200000
v -1.648528 0.234315 0.200000
v -0.234315 1.648528 0.200000
v -1.365685 -0.048528 0.200000
v 0.048528 1.365685 0.200000
vn -0.0000 -0.0000 -1.0000
vn 0.7071 -0.7071 -0.0000
vn -0.0000 -0.0000 1.0000
vn -0.7071 0.7071 -0.0000
vn -0.7071 -0.7071 -0.0000
vn 0.7071 0.7071 -0.0000
vt 0.217958 0.838379
vt 0.217958 0.017958
vt 0.382042 0.017958
vt 0.382042 0.838379
vt 0.417958 0.838380
vt 0.417958 0.017958
vt 0.582042 0.017958
vt 0.582042 0.838380
vt 0.017958 0.838380
vt 0.017958 0.017958
vt 0.182042 0.017958
vt 0.182042 0.838380
vt 0.617958 0.838379
vt 0.617958 0.017958
vt 0.782042 0.017958
vt 0.782042 0.838379
vt 0.982042 0.217958
vt 0.982042 0.382042
vt 0.817958 0.382042
vt 0.817958 0.217958
vt 0.982042 0.017958
vt 0.982042 0.182042
vt 0.817958 0.182042
vt 0.817958 0.017958
s 0
usemtl Log_MAT
f 26/58/22 27/59/22 29/60/22 28/61/22
f 28/62/23 29/63/23 33/64/23 32/65/23
f 32/66/24 33/67/24 31/68/24 30/69/24
f 30/70/25 31/71/25 27/72/25 26/73/25
f 28/74/26 32/75/26 30/76/26 26/77/26
f 33/78/27 29/79/27 27/80/27 31/81/27
o Log.003
v 1.648528 0.234315 -0.200000
v 0.234315 1.648528 -0.200000
v 1.365685 -0.048528 -0.200000
v -0.048528 1.365685 -0.200000
v 1.648528 0.234315 0.200000
v 0.234315 1.648528 0.200000
v 1.365685 -0.048528 0.200000
v -0.048528 1.365685 0.200000
vn -0.0000 -0.0000 -1.0000
vn -0.7071 -0.7071 -0.0000
vn -0.0000 -0.0000 1.0000
vn 0.7071 0.7071 -0.0000
vn 0.7071 -0.7071 -0.0000
vn -0.7071 0.7071 -0.0000
vt 0.217958 0.838379
vt 0.382042 0.838379
vt 0.382042 0.017958
vt 0.217958 0.017958
vt 0.417958 0.838380
vt 0.582042 0.838380
vt 0.582042 0.017958
vt 0.417958 0.017958
vt 0.017958 0.838380
vt 0.182042 0.838380
vt 0.182042 0.017958
vt 0.017958 0.017958
vt 0.617958 0.838379
vt 0.782042 0.838379
vt 0.782042 0.017958
vt 0.617958 0.017958
vt 0.982042 0.217958
vt 0.817958 0.217958
vt 0.817958 0.382042
vt 0.982042 0.382042
vt 0.982042 0.017958
vt 0.817958 0.017958
vt 0.817958 0.182042
vt 0.982042 0.182042
s 0
usemtl Log_MAT
f 34/82/28 36/83/28 37/84/28 35/85/28
f 36/86/29 40/87/29 41/88/29 37/89/29
f 40/90/30 38/91/30 39/92/30 41/93/30
f 38/94/31 34/95/31 35/96/31 39/97/31
f 36/98/32 34/99/32 38/100/32 40/101/32
f 41/102/33 39/103/33 35/104/33 37/105/33
o Log.004
v -1.269291 0.377635 -1.552133
v 0.059635 1.061675 -0.223208
v -1.172553 0.001757 -1.455396
v 0.156373 0.685798 -0.126470
v -1.552134 0.377635 -1.269291
v -0.223208 1.061675 0.059635
v -1.455396 0.001757 -1.172553
v -0.126470 0.685798 0.156373
vn 0.7071 -0.0000 -0.7071
vn 0.2418 -0.9397 0.2418
vn -0.7071 -0.0000 0.7071
vn -0.2418 0.9397 -0.2418
vn -0.6645 -0.3420 -0.6645
vn 0.6645 0.3420 0.6645
vt 0.217958 0.838379
vt 0.217958 0.017958
vt 0.382042 0.017958
vt 0.382042 0.838379
vt 0.417958 0.838380
vt 0.417958 0.017958
vt 0.582042 0.017958
vt 0.582042 0.838380
vt 0.017958 0.838380
vt 0.017958 0.017958
vt 0.182042 0.017958
vt 0.182042 0.838380
vt 0.617958 0.838379
vt 0.617958 0.017958
vt 0.782042 0.017958
vt 0.782042 0.838379
vt 0.982042 0.217958
vt 0.982042 0.382042
vt 0.817958 0.382042
vt 0.817958 0.217958
vt 0.982042 0.017958
vt 0.982042 0.182042
vt 0.817958 0.182042
vt 0.817958 0.017958
s 0
usemtl Log_MAT
f 42/106/34 43/107/34 45/108/34 44/109/34
f 44/110/35 45/111/35 49/112/35 48/113/35
f 48/114/36 49/115/36 47/116/36 46/117/36
f 46/118/37 47/119/37 43/120/37 42/121/37
f 44/122/38 48/123/38 46/124/38 42/125/38
f 49/126/39 45/127/39 43/128/39 47/129/39
o Log.005
v 1.552133 0.377634 1.269291
v 0.223208 1.061675 -0.059635
v 1.455396 0.001757 1.172553
v 0.126470 0.685798 -0.156373
v 1.269291 0.377635 1.552134
v -0.059635 1.061675 0.223207
v 1.172553 0.001757 1.455396
v -0.156373 0.685798 0.126470
vn 0.7071 -0.0000 -0.7071
vn -0.2418 -0.9397 -0.2418
vn -0.7071 -0.0000 0.7071
vn 0.2418 0.9397 0.2418
vn 0.6645 -0.3420 0.6645
vn -0.6645 0.3420 -0.6645
vt 0.217958 0.838379
vt 0.382042 0.838379
vt 0.382042 0.017958
vt 0.217958 0.017958
vt 0.417958 0.838380
vt 0.582042 0.838380
vt 0.582042 0.017958
vt 0.417958 0.017958
vt 0.017958 0.838380
vt 0.182042 0.838380
vt 0.182042 0.017958
vt 0.017958 0.017958
vt 0.617958 0.838379
vt 0.782042 0.838379
vt 0.782042 0.017958
vt 0.617958 0.017958
vt 0.982042 0.217958
vt 0.817958 0.217958
vt 0.817958 0.382042
vt 0.982042 0.382042
vt 0.982042 0.017958
vt 0.817958 0.017958
vt 0.817958 0.182042
vt 0.982042 0.182042
s 0
usemtl Log_MAT
f 50/130/40 52/131/40 53/132/40 51/133/40
f 52/134/41 56/135/41 57/136/41 53/137/41
f 56/138/42 54/139/42 55/140/42 57/141/42
f 54/142/43 50/143/43 51/144/43 55/145/43
f 52/146/44 50/147/44 54/148/44 56/149/44
f 57/150/45 55/151/45 51/152/45 53/153/45
o Log.006
v 1.552133 0.377635 -1.269291
v 0.223208 1.061675 0.059635
v 1.455395 0.001757 -1.172553
v 0.126470 0.685798 0.156373
v 1.269290 0.377635 -1.552134
v -0.059635 1.061675 -0.223208
v 1.172553 0.001757 -1.455396
v -0.156373 0.685798 -0.126470
vn 0.7071 -0.0000 0.7071
vn -0.2418 -0.9397 0.2418
vn -0.7071 -0.0000 -0.7071
vn 0.2418 0.9397 -0.2418
vn 0.6645 -0.3420 -0.6645
vn -0.6645 0.3420 0.6645
vt 0.217958 0.838379
vt 0.217958 0.017958
vt 0.382042 0.017958
vt 0.382042 0.838379
vt 0.417958 0.838380
vt 0.417958 0.017958
vt 0.582042 0.017958
vt 0.582042 0.838380
vt 0.017958 0.838380
vt 0.017958 0.017958
vt 0.182042 0.017958
vt 0.182042 0.838380
vt 0.617958 0.838379
vt 0.617958 0.017958
vt 0.782042 0.017958
vt 0.782042 0.838379
vt 0.982042 0.217958
vt 0.982042 0.382042
vt 0.817958 0.382042
vt 0.817958 0.217958
vt 0.982042 0.017958
vt 0.982042 0.182042
vt 0.817958 0.182042
vt 0.817958 0.017958
s 0
usemtl Log_MAT
f 58/154/46 59/155/46 61/156/46 60/157/46
f 60/158/47 61/159/47 65/160/47 64/161/47
f 64/162/48 65/163/48 63/164/48 62/165/48
f 62/166/49 63/167/49 59/168/49 58/169/49
f 60/170/50 64/171/50 62/172/50 58/173/50
f 65/174/51 61/175/51 59/176/51 63/177/51
o Log.007
v -1.269290 0.377635 1.552134
v 0.059635 1.061675 0.223207
v -1.172553 0.001757 1.455396
v 0.156373 0.685798 0.126469
v -1.552133 0.377634 1.269291
v -0.223208 1.061675 -0.059635
v -1.455395 0.001757 1.172553
v -0.126470 0.685798 -0.156373
vn 0.7071 -0.0000 0.7071
vn 0.2418 -0.9397 -0.2418
vn -0.7071 -0.0000 -0.7071
vn -0.2418 0.9397 0.2418
vn -0.6645 -0.3420 0.6645
vn 0.6645 0.3420 -0.6645
vt 0.217958 0.838379
vt 0.382042 0.838379
vt 0.382042 0.017958
vt 0.217958 0.017958
vt 0.417958 0.838380
vt 0.582042 0.838380
vt 0.582042 0.017958
vt 0.417958 0.017958
vt 0.017958 0.838380
vt 0.182042 0.838380
vt 0.182042 0.017958
vt 0.017958 0.017958
vt 0.617958 0.838379
vt 0.782042 0.838379
vt 0.782042 0.017958
vt 0.617958 0.017958
vt 0.982042 0.217958
vt 0.817958 0.217958
vt 0.817958 0.382042
vt 0.982042 0.382042
vt 0.982042 0.017958
vt 0.817958 0.017958
vt 0.817958 0.182042
vt 0.982042 0.182042
s 0
usemtl Log_MAT
f 66/178/52 68/179/52 69/180/52 67/181/52
f 68/182/53 72/183/53 73/184/53 69/185/53
f 72/186/54 70/187/54 71/188/54 73/189/54
f 70/190/55 66/191/55 67/192/55 71/193/55
f 68/194/56 66/195/56 70/196/56 72/197/56
f 73/198/57 71/199/57 67/200/57 69/201/57
